<?xml version="1.0" standalone="no"?>
<!DOCTYPE svg PUBLIC "-//W3C//DTD SVG 20010904//EN"
 "http://www.w3.org/TR/2001/REC-SVG-20010904/DTD/svg10.dtd">
<svg version="1.0" xmlns="http://www.w3.org/2000/svg"
 width="1920.000000pt" height="1080.000000pt" viewBox="0 0 1920.000000 1080.000000"
 preserveAspectRatio="xMidYMid meet">

<g transform="translate(0.000000,1080.000000) scale(0.100000,-0.100000)"
fill="#000000" stroke="none">
<path d="M0 5400 l0 -5400 9600 0 9600 0 0 5400 0 5400 -9600 0 -9600 0 0
-5400z m10010 3985 c95 -7 110 -9 278 -36 284 -45 635 -149 892 -266 95 -43
224 -107 250 -124 14 -9 50 -29 80 -46 139 -76 169 -95 310 -196 303 -217 536
-445 815 -798 107 -135 293 -434 364 -584 92 -194 203 -477 235 -595 8 -30 24
-90 36 -133 69 -257 104 -534 109 -857 1 -85 5 -157 8 -160 2 -3 296 -3 653
-2 494 3 649 1 655 -8 12 -20 23 -2545 11 -2557 -2 -3 -542 -4 -1200 -4
l-1195 1 -28 -28 c-115 -117 -427 -365 -569 -452 -32 -19 -74 -45 -93 -57
-287 -176 -619 -317 -961 -409 -351 -95 -675 -131 -1083 -121 -330 8 -537 34
-797 101 -88 23 -119 32 -247 70 -191 57 -538 211 -702 310 -32 20 -62 36 -65
36 -13 0 -303 196 -376 255 -42 33 -88 69 -102 80 -15 11 -75 63 -135 115
l-108 95 -1200 5 -1200 5 -7 1270 c-4 699 -5 1276 -3 1283 3 9 144 12 659 12
360 0 657 4 660 8 3 5 6 67 7 138 5 313 35 548 111 864 33 135 106 363 144
448 13 29 24 58 24 64 0 22 189 393 252 494 65 104 186 285 197 294 4 3 36 41
71 85 273 340 538 586 860 798 165 109 485 280 633 338 28 11 66 27 82 34 17
7 39 15 50 18 11 3 65 21 120 40 269 92 623 161 905 176 141 7 487 5 600 -4z
m6551 -2034 c7 11 9 11 9 -3 0 -10 7 -18 15 -18 8 0 15 -5 15 -10 0 -6 -11 -8
-25 -4 -17 4 -32 1 -44 -10 -16 -14 -19 -14 -37 0 -18 15 -18 15 3 5 16 -8 22
-7 27 5 3 8 2 12 -4 9 -20 -12 -32 7 -13 20 13 10 21 10 31 2 10 -8 16 -7 23
4z m14 -109 c0 -18 -20 -15 -23 4 -3 10 1 15 10 12 7 -3 13 -10 13 -16z m33
-46 c3 -12 -1 -17 -10 -14 -7 3 -15 13 -16 22 -3 12 1 17 10 14 7 -3 15 -13
16 -22z m2572 -2608 c0 -6 -6 -5 -15 2 -8 7 -15 14 -15 16 0 2 7 1 15 -2 8 -4
15 -11 15 -16z"/>
<path d="M9440 9190 c-348 -24 -758 -115 -1035 -230 -11 -5 -46 -18 -78 -29
-32 -12 -75 -30 -95 -41 -20 -11 -82 -41 -137 -68 -128 -63 -216 -110 -236
-128 -8 -8 -20 -14 -26 -14 -5 0 -19 -8 -31 -17 -12 -10 -51 -38 -87 -63 -101
-70 -205 -148 -260 -197 -27 -24 -63 -55 -80 -69 -116 -98 -375 -368 -481
-504 -131 -167 -291 -423 -380 -610 -62 -129 -114 -247 -114 -258 0 -5 -13
-43 -29 -83 -65 -164 -137 -447 -166 -654 -4 -22 -8 -47 -10 -55 -17 -59 -36
-346 -35 -525 0 -115 1 -219 3 -230 2 -20 -4 -20 -656 -21 -361 -1 -660 -4
-664 -8 -11 -11 -1 -2169 11 -2177 1 0 534 -3 1185 -5 937 -4 1187 -8 1195
-18 6 -7 43 -39 81 -72 39 -32 75 -64 80 -70 6 -6 30 -26 55 -44 25 -19 52
-40 60 -47 29 -26 163 -124 219 -160 31 -19 85 -55 121 -78 122 -79 348 -198
445 -235 11 -5 43 -18 70 -30 118 -53 454 -152 625 -186 389 -76 785 -85 1195
-29 240 32 629 135 782 205 24 11 45 20 48 20 2 0 30 12 62 26 364 162 673
364 979 640 l82 74 1186 0 c942 0 1186 3 1186 13 5 178 -12 2162 -19 2169 -3
3 -298 8 -654 10 -552 3 -649 5 -657 18 -5 8 -6 18 -3 23 10 16 4 501 -7 592
-36 280 -51 366 -99 547 -68 257 -131 428 -247 662 -41 82 -80 157 -87 165 -8
9 -17 24 -20 34 -4 10 -24 44 -44 75 -20 31 -62 95 -92 142 -56 87 -130 186
-185 251 -17 20 -42 52 -56 70 -35 47 -345 356 -400 399 -25 19 -56 45 -70 58
-14 12 -51 42 -83 65 -32 23 -75 55 -95 70 -76 59 -273 178 -407 246 -154 78
-270 131 -285 131 -6 0 -29 9 -53 19 -143 65 -511 163 -732 195 -252 37 -547
51 -775 36z m-3920 -4001 c113 -17 208 -35 213 -39 4 -3 0 -136 -8 -296 -8
-159 -16 -487 -18 -729 -4 -419 -6 -444 -27 -525 -21 -78 -27 -90 -79 -141
-88 -87 -169 -106 -375 -90 -185 16 -205 20 -211 45 -6 25 -23 348 -19 357 2
3 31 0 66 -7 77 -16 131 -17 181 -3 53 14 68 54 77 204 9 136 0 351 -36 875
-20 294 -24 373 -17 383 3 5 15 6 27 4 11 -3 113 -20 226 -38z m5797 3 c147
-50 266 -140 351 -267 83 -122 116 -259 110 -459 -4 -120 -8 -152 -30 -214
-39 -108 -83 -175 -178 -271 -91 -92 -175 -144 -281 -175 -54 -15 -57 -17 -61
-53 -3 -21 -3 -113 0 -205 l5 -168 -125 0 c-69 0 -158 -3 -199 -6 l-74 -7 3
84 c2 46 9 145 16 219 19 204 20 884 1 1190 -24 397 -26 354 15 362 19 3 107
5 195 4 150 -2 166 -5 252 -34z m-2626 -140 c27 -17 138 -93 216 -148 23 -16
42 -34 43 -40 0 -6 -21 -25 -47 -44 -104 -72 -173 -176 -173 -260 0 -38 9 -60
54 -130 29 -47 64 -98 78 -115 13 -16 40 -55 58 -85 32 -50 35 -61 35 -135 0
-72 -4 -88 -38 -159 -58 -122 -256 -396 -286 -396 -5 0 -46 25 -91 55 l-83 56
7 -61 7 -61 -163 3 -163 3 -6 125 c-8 161 -16 208 -37 214 -32 9 -257 16 -268
9 -6 -5 -16 -44 -22 -88 -27 -183 -33 -218 -38 -226 -3 -5 -72 -9 -155 -9
-127 0 -149 2 -149 15 0 17 -20 14 -104 -16 -54 -20 -70 -15 -82 24 -6 22 -30
74 -104 232 -21 44 -41 90 -45 103 -7 23 -13 26 -39 16 -14 -5 -16 -32 -16
-190 0 -208 10 -187 -85 -186 -22 0 -80 1 -128 1 l-89 1 3 730 c1 401 6 735
10 741 5 9 63 11 223 6 254 -6 267 -10 362 -110 86 -89 137 -161 174 -246 30
-69 32 -81 28 -155 -3 -60 -12 -96 -31 -139 -15 -32 -27 -61 -27 -65 0 -4 -30
-40 -66 -80 l-66 -73 7 -47 c14 -101 102 -331 118 -311 8 9 99 404 148 644 38
185 99 536 99 568 0 9 8 17 18 17 150 4 428 -3 432 -10 3 -5 13 -73 23 -152
40 -318 174 -1037 199 -1063 6 -7 35 17 83 67 60 64 75 86 85 129 17 69 7 138
-27 191 -15 24 -32 51 -38 60 -5 9 -30 45 -54 79 -24 35 -57 92 -74 126 -25
54 -29 75 -29 142 1 69 5 88 33 143 17 34 56 96 86 136 52 70 152 182 163 181
3 0 17 -8 31 -17z m577 -14 c26 -17 88 -62 138 -100 50 -37 94 -68 99 -68 4 0
4 36 0 80 -7 74 -6 80 11 81 41 3 309 -2 312 -6 2 -2 -2 -109 -8 -239 -14
-250 -9 -777 9 -1056 6 -85 7 -158 3 -161 -4 -4 -78 -9 -166 -11 l-159 -4 7
100 c18 259 25 438 25 636 0 223 -14 538 -24 548 -11 11 -96 -43 -144 -93 -88
-90 -121 -187 -86 -256 10 -19 41 -70 70 -114 111 -171 125 -194 133 -233 11
-49 0 -122 -27 -182 -32 -70 -81 -152 -105 -180 -12 -14 -42 -52 -66 -85 -52
-72 -130 -155 -145 -155 -24 0 -285 191 -285 208 0 4 12 13 28 19 50 23 176
131 210 181 25 37 34 62 38 112 8 83 -9 123 -122 290 -68 100 -98 190 -91 273
10 125 61 214 210 365 45 45 83 82 85 82 2 0 24 -14 50 -32z m-3137 -5 c12
-13 14 -112 14 -547 l0 -531 40 -14 c22 -7 75 -16 117 -18 l77 -5 8 38 c4 22
8 274 7 562 l0 522 169 0 170 0 -6 -77 c-22 -267 -31 -522 -31 -925 -1 -252
-1 -458 -2 -458 -1 0 -59 -9 -130 -20 -179 -27 -174 -28 -174 18 0 21 -3 41
-6 45 -3 3 -37 -14 -74 -39 -38 -24 -75 -44 -82 -44 -25 0 -248 118 -306 162
-31 24 -62 55 -69 68 -9 18 -13 110 -13 345 0 348 -13 639 -36 808 -7 59 -14
112 -14 117 0 6 65 10 164 10 140 0 166 -2 177 -17z m4291 -100 c60 -59 108
-111 108 -115 0 -4 -28 -22 -62 -39 -79 -40 -195 -155 -231 -230 -34 -70 -67
-198 -67 -262 0 -28 10 -85 21 -126 19 -67 34 -102 87 -196 35 -64 172 -163
275 -198 9 -4 17 -11 17 -16 0 -16 -245 -221 -265 -221 -23 0 -165 102 -210
152 -122 134 -176 260 -209 484 -40 261 52 544 237 735 58 61 158 139 177 139
8 0 63 -48 122 -107z m3352 90 c4 -3 5 -50 1 -104 -7 -101 3 -349 14 -349 17
0 139 272 171 380 12 41 26 79 30 83 10 11 300 -134 300 -151 0 -7 -46 -90
-103 -185 -57 -94 -123 -209 -147 -254 l-45 -83 40 -77 c21 -43 68 -130 103
-193 36 -63 72 -128 80 -145 8 -16 38 -68 67 -115 84 -138 81 -126 38 -153
-21 -13 -65 -39 -98 -57 -33 -18 -79 -44 -102 -57 l-42 -24 -46 98 c-26 54
-64 136 -85 183 -33 75 -73 160 -113 239 -7 14 -18 26 -24 29 -29 9 -34 -51
-27 -290 l7 -238 -124 0 c-68 0 -141 3 -161 6 l-37 6 6 422 c5 386 1 564 -24
945 l-6 103 159 -7 c87 -4 163 -10 168 -12z m-1380 -9 c3 -9 6 -28 6 -42 0
-132 192 -1117 224 -1149 7 -7 12 300 14 762 l1 440 218 3 c261 3 273 0 374
-96 120 -113 199 -251 207 -364 8 -120 -37 -235 -133 -337 l-61 -64 33 -113
c40 -138 92 -282 133 -370 16 -36 28 -70 25 -74 -6 -9 -223 -80 -244 -80 -7 0
-28 35 -48 78 -19 42 -45 100 -58 127 -13 28 -39 85 -59 128 -34 75 -46 86
-74 68 -16 -9 -16 -11 -13 -176 1 -66 2 -138 2 -161 l-1 -40 -121 4 c-94 3
-125 0 -137 -11 -13 -11 -51 -13 -173 -12 -86 1 -161 5 -166 8 -6 4 -13 68
-17 144 -9 194 -8 190 -66 195 -27 3 -93 5 -147 4 l-97 -1 -9 -45 c-4 -25 -16
-99 -26 -165 l-17 -120 -152 -3 c-177 -3 -163 -16 -133 130 11 51 27 129 36
173 9 44 29 141 45 215 16 74 38 178 50 230 30 142 79 429 96 565 8 66 17 130
20 143 l4 22 229 0 c199 0 230 -2 235 -16z m1826 -603 c0 -5 -7 -12 -16 -15
-11 -4 -14 -13 -10 -29 3 -12 1 -29 -4 -37 -7 -11 -10 -5 -10 22 0 20 -5 40
-10 43 -6 4 -8 11 -5 16 8 12 55 12 55 0z m58 -16 c10 -21 9 -27 -3 -31 -8 -4
-15 -15 -15 -25 0 -10 -4 -19 -10 -19 -11 0 -14 83 -3 93 12 12 20 7 31 -18z
m72 0 c0 -19 -5 -25 -21 -25 -11 0 -18 3 -16 8 2 4 7 15 10 25 9 26 27 21 27
-8z m-40 -62 c0 -20 -24 -11 -28 10 -2 12 1 15 12 11 9 -3 16 -13 16 -21z m37
-5 c-3 -7 -5 -2 -5 12 0 14 2 19 5 13 2 -7 2 -19 0 -25z"/>
<path d="M5474 4843 c3 -137 10 -313 14 -393 4 -80 7 -271 7 -425 l0 -280 -26
-40 c-54 -83 -102 -105 -224 -105 -77 0 -85 -2 -85 -19 0 -24 24 -30 109 -25
123 7 202 53 245 144 21 45 21 49 18 705 -3 591 -5 661 -20 673 -9 6 -22 12
-30 12 -13 0 -14 -34 -8 -247z"/>
<path d="M11020 5110 c-6 -3 -5 -100 2 -250 6 -158 7 -413 2 -720 -11 -699
-12 -634 10 -638 10 -2 22 2 27 10 5 7 9 99 9 204 0 211 -2 204 63 204 39 0
151 31 197 55 223 115 331 367 289 672 -36 264 -248 459 -507 467 -45 1 -87
-1 -92 -4z m165 -35 c155 -41 262 -126 327 -261 118 -244 76 -570 -94 -731
-91 -86 -200 -133 -305 -133 l-43 0 -2 558 c-2 306 1 563 6 570 11 16 39 15
111 -3z"/>
<path d="M11217 4873 c-8 -47 -8 -700 0 -719 8 -21 25 -17 75 16 222 147 223
534 2 698 -31 23 -60 42 -64 42 -4 0 -10 -17 -13 -37z"/>
<path d="M6913 4943 c-16 -11 -22 -1268 -6 -1284 22 -22 28 18 30 201 2 102 3
188 3 191 0 4 28 12 62 19 34 6 92 25 130 42 38 17 71 29 74 26 2 -3 27 -68
53 -144 66 -187 108 -295 120 -307 35 -35 11 57 -74 293 -13 36 -32 93 -42
127 l-19 62 46 36 c62 49 109 121 131 202 49 174 -6 341 -146 445 -34 26 -90
56 -123 67 -65 22 -219 38 -239 24z m241 -61 c55 -20 82 -38 130 -87 81 -81
110 -154 110 -275 0 -76 -3 -93 -35 -160 -39 -83 -101 -147 -193 -199 -55 -32
-151 -61 -199 -61 l-28 0 2 397 c1 219 4 404 7 411 7 20 119 6 206 -26z"/>
<path d="M7050 4571 c0 -227 6 -291 27 -291 24 0 127 106 154 157 29 58 31
132 5 183 -31 60 -132 150 -168 150 -17 0 -18 -16 -18 -199z"/>
<path d="M7871 4898 c-5 -13 -18 -70 -30 -128 -12 -58 -35 -163 -51 -235 -16
-71 -45 -204 -65 -295 -20 -91 -47 -210 -60 -265 -13 -55 -26 -120 -30 -145
-4 -25 -13 -67 -21 -94 -8 -27 -14 -56 -14 -63 0 -17 40 -17 44 0 15 57 57
253 63 297 l8 55 252 0 c138 0 254 -2 256 -5 3 -3 18 -93 34 -200 27 -184 30
-195 51 -198 13 -2 22 2 22 10 0 32 -91 589 -120 734 -65 329 -93 464 -107
507 l-15 47 -104 0 c-99 0 -105 -1 -113 -22z m196 -20 c11 -14 54 -203 78
-343 57 -321 75 -431 75 -451 0 -24 -1 -24 -122 -25 -202 -1 -332 1 -351 7
-14 4 -17 12 -12 27 3 12 15 76 25 142 10 66 27 158 39 205 11 47 29 126 40
175 12 50 31 128 44 175 21 79 25 85 52 91 53 12 122 10 132 -3z"/>
<path d="M7972 4633 c-17 -43 -82 -338 -89 -404 l-6 -59 101 0 c55 0 103 4
106 8 15 25 -75 482 -95 482 -3 0 -11 -12 -17 -27z"/>
<path d="M8652 4858 c-22 -29 -55 -82 -73 -117 -30 -58 -34 -73 -33 -145 0
-70 4 -90 33 -151 18 -38 40 -79 50 -90 41 -46 91 -144 102 -198 24 -119 -17
-241 -125 -370 -23 -28 -36 -53 -32 -62 9 -23 21 -18 57 24 107 123 166 264
156 371 -5 61 -46 143 -132 267 -50 72 -70 147 -62 233 6 66 32 125 92 204 34
45 42 63 33 73 -17 20 -23 17 -66 -39z"/>
<path d="M9199 4852 c-24 -31 -60 -86 -79 -122 -31 -59 -34 -73 -34 -145 0
-88 17 -132 103 -265 62 -97 74 -128 79 -202 3 -50 -1 -82 -18 -132 -12 -36
-26 -68 -31 -72 -5 -3 -18 -22 -28 -43 -11 -20 -40 -60 -65 -88 -40 -44 -44
-52 -31 -63 19 -16 47 7 108 90 50 67 72 107 97 182 36 105 21 194 -50 299
-21 31 -56 89 -77 129 -35 68 -38 80 -38 154 0 70 5 89 30 139 16 32 49 81 72
110 24 28 43 55 43 59 0 4 -8 12 -19 17 -15 9 -25 2 -62 -47z"/>
<path d="M9664 4902 c-8 -5 -8 -61 -2 -192 4 -102 5 -331 1 -510 -3 -179 -6
-354 -5 -390 0 -36 1 -82 1 -103 1 -38 25 -62 40 -38 8 12 3 1206 -4 1229 -5
14 -15 15 -31 4z"/>
<path d="M5970 4902 c0 -146 21 -973 25 -1008 9 -65 87 -130 217 -179 l47 -17
53 27 c29 15 90 53 135 85 45 32 84 56 87 53 3 -4 6 -42 6 -85 0 -70 2 -79 18
-76 16 3 17 39 14 618 -2 338 -6 618 -8 622 -3 5 -12 8 -21 8 -15 0 -16 -46
-9 -514 l7 -514 -43 -37 c-24 -20 -81 -62 -127 -93 l-84 -56 -65 23 c-69 24
-157 75 -182 106 -13 15 -15 94 -18 539 -2 287 -5 527 -7 534 -2 6 -14 12 -25
12 -17 0 -20 -6 -20 -48z"/>
<path d="M10229 4802 c-102 -107 -175 -237 -209 -369 -17 -69 -13 -239 8 -318
36 -133 110 -259 212 -362 58 -60 91 -76 105 -53 4 6 -38 57 -92 113 -146 153
-204 283 -204 466 -1 183 85 376 230 514 34 32 61 65 61 73 0 33 -42 9 -111
-64z"/>
<path d="M13596 4933 c-4 -4 -4 -129 -1 -278 3 -148 8 -414 10 -590 2 -176 4
-333 4 -348 1 -24 5 -28 24 -25 l22 3 -3 188 -4 187 87 115 c48 62 93 119 100
125 16 13 40 -29 201 -365 63 -132 120 -244 125 -250 6 -6 15 -3 25 7 15 15 9
30 -77 195 -51 98 -118 229 -150 291 -31 62 -63 120 -70 128 -23 27 -15 76 19
123 18 24 32 49 32 54 0 6 6 18 14 26 16 20 102 184 140 269 22 50 25 66 16
78 -18 21 -29 17 -42 -13 -104 -253 -203 -429 -351 -632 l-62 -84 -6 74 c-3
41 -7 215 -8 388 -2 299 -5 341 -31 341 -3 0 -10 -3 -14 -7z"/>
<path d="M12777 4942 c-16 -7 -17 -46 -20 -645 l-3 -637 23 0 23 0 0 199 0
200 48 7 c48 6 166 48 190 67 21 17 17 25 133 -273 74 -192 86 -217 101 -202
4 4 -21 93 -58 198 -36 104 -75 215 -86 247 l-20 58 54 57 c88 92 122 164 134
283 11 98 -28 219 -94 294 -32 37 -107 93 -152 113 -78 35 -224 53 -273 34z
m182 -41 c83 -26 141 -62 194 -120 76 -85 92 -129 92 -251 0 -98 -2 -110 -33
-176 -36 -75 -106 -153 -173 -191 -62 -35 -148 -63 -194 -63 l-45 0 0 403 c0
222 3 407 7 410 13 13 92 7 152 -12z"/>
<path d="M12917 4763 c-4 -3 -7 -114 -7 -245 0 -268 -2 -261 73 -209 81 56
143 207 117 285 -28 85 -153 200 -183 169z"/>
<path d="M12045 4888 c-3 -7 -16 -69 -29 -138 -27 -136 -81 -381 -121 -555
-45 -194 -104 -469 -107 -500 -3 -26 0 -30 22 -30 23 0 25 4 38 90 7 50 23
131 35 180 l22 90 253 3 252 2 9 -22 c5 -13 14 -63 20 -113 24 -188 35 -246
48 -257 28 -23 31 8 13 122 -35 219 -51 315 -70 400 -10 47 -37 180 -60 295
-37 187 -58 283 -91 408 l-10 37 -110 0 c-79 0 -111 -4 -114 -12z m209 -65
c53 -164 157 -710 142 -749 -4 -11 -49 -14 -234 -13 -126 1 -234 4 -241 8 -12
8 21 199 69 406 11 50 29 131 40 180 11 50 27 113 36 140 8 28 17 56 19 63 3
8 28 12 79 12 l74 0 16 -47z"/>
<path d="M12155 4658 c-29 -96 -95 -429 -95 -483 0 -3 47 -5 105 -5 90 0 105
2 105 16 0 31 -32 219 -55 324 -32 142 -48 184 -60 148z"/>
</g>
</svg>
